<?xml version="1.0" standalone="no"?>
<!DOCTYPE svg PUBLIC "-//W3C//DTD SVG 20010904//EN"
 "http://www.w3.org/TR/2001/REC-SVG-20010904/DTD/svg10.dtd">
<svg version="1.0" xmlns="http://www.w3.org/2000/svg"
 width="1024.000000pt" height="1024.000000pt" viewBox="0 0 1024.000000 1024.000000"
 preserveAspectRatio="xMidYMid meet">
<metadata>
Created by potrace 1.14, written by Peter Selinger 2001-2017
</metadata>
<g transform="translate(0.000000,1024.000000) scale(0.100000,-0.100000)"
fill="#000000" stroke="none">
<path d="M8090 8051 c0 -4 -11 -18 -24 -33 -14 -14 -22 -29 -19 -32 4 -3 -5
-15 -18 -27 -13 -12 -23 -25 -21 -30 1 -5 -2 -9 -7 -9 -5 0 -25 -15 -44 -34
-20 -19 -38 -32 -41 -28 -3 3 -6 1 -6 -5 0 -6 -13 -16 -30 -23 -16 -7 -30 -17
-30 -22 0 -5 -4 -6 -10 -3 -5 3 -10 1 -10 -4 0 -6 -5 -11 -10 -11 -6 0 -28
-11 -49 -24 -21 -14 -41 -22 -45 -19 -3 3 -8 -2 -12 -11 -3 -9 -10 -14 -14
-11 -5 3 -11 1 -15 -5 -3 -5 -13 -10 -21 -10 -8 0 -33 -9 -55 -19 -22 -11 -53
-23 -69 -26 -17 -4 -30 -11 -30 -16 0 -6 -4 -8 -9 -4 -5 3 -12 1 -16 -5 -4 -6
-11 -8 -16 -5 -5 4 -9 1 -9 -5 0 -6 -4 -9 -9 -5 -5 3 -12 1 -16 -5 -4 -6 -11
-8 -16 -5 -5 4 -9 1 -9 -5 0 -6 -4 -9 -9 -5 -5 3 -16 -2 -25 -11 -9 -8 -25
-16 -36 -17 -11 -1 -22 -7 -25 -15 -3 -7 -9 -10 -15 -7 -5 3 -10 1 -10 -6 0
-7 -3 -10 -6 -6 -3 3 -15 -3 -27 -13 -11 -11 -24 -17 -29 -14 -4 3 -8 0 -8 -5
0 -6 -7 -11 -15 -11 -8 0 -15 -4 -15 -10 0 -5 -6 -10 -14 -10 -8 0 -17 -7 -20
-16 -3 -8 -10 -13 -15 -9 -5 3 -12 -4 -16 -15 -4 -11 -11 -18 -16 -15 -5 4
-12 -1 -15 -9 -3 -9 -13 -16 -21 -16 -8 0 -12 -4 -9 -8 2 -4 -7 -16 -22 -26
-15 -10 -43 -39 -62 -64 -19 -26 -41 -51 -48 -55 -7 -5 -10 -12 -7 -18 4 -5
-1 -12 -9 -15 -9 -3 -16 -12 -16 -19 0 -7 -4 -15 -8 -17 -12 -5 -72 -131 -78
-164 -3 -16 -8 -38 -11 -49 -9 -27 -10 -32 -12 -56 0 -11 -5 -18 -10 -15 -5 4
-7 -3 -4 -14 3 -11 1 -20 -5 -20 -5 0 -13 -7 -16 -16 -5 -13 -4 -14 7 -6 10 9
14 8 14 -3 0 -8 -4 -12 -8 -9 -4 2 -14 -2 -22 -10 -8 -8 -17 -13 -19 -11 -3 3
-5 -1 -5 -9 0 -8 6 -12 14 -9 7 3 13 0 13 -7 0 -6 -4 -9 -9 -5 -5 3 -13 1 -16
-5 -5 -8 -11 -7 -21 1 -11 9 -11 15 -3 25 9 11 8 14 0 14 -7 0 -10 4 -7 9 3 5
-1 11 -9 14 -8 4 -12 15 -10 28 3 13 0 28 -6 35 -6 7 -7 19 -3 25 4 8 3 9 -4
5 -8 -5 -12 2 -12 18 0 14 -4 26 -10 26 -5 0 -10 5 -10 10 0 16 -43 104 -54
112 -6 4 -7 8 -3 8 4 0 -3 15 -17 33 -15 19 -26 37 -26 41 0 5 -13 21 -30 36
-16 15 -30 33 -30 40 0 6 -4 8 -10 5 -5 -3 -10 0 -10 8 0 18 -77 70 -85 57 -4
-6 -16 -3 -30 6 -13 9 -29 13 -35 9 -5 -3 -10 -1 -10 6 0 7 -3 9 -7 6 -3 -4
-12 -2 -20 4 -9 9 -13 8 -13 0 0 -9 -5 -9 -20 -1 -15 8 -20 8 -20 -2 0 -9 -3
-9 -10 2 -9 13 -10 13 -10 0 -1 -11 -4 -10 -15 4 -9 12 -15 15 -15 7 0 -11 -3
-11 -15 -1 -12 10 -15 10 -15 -1 0 -9 -3 -10 -8 -4 -10 14 -45 16 -54 2 -5 -7
-8 -8 -8 -2 0 14 -38 17 -45 4 -4 -5 -12 -6 -18 -2 -17 11 -31 10 -39 -2 -5
-6 -8 -5 -8 4 0 9 -4 10 -12 4 -7 -6 -23 -9 -35 -8 -13 1 -23 -2 -23 -6 0 -4
-10 -6 -21 -4 -12 2 -29 0 -38 -4 -9 -5 -29 -10 -46 -12 -16 -2 -35 -7 -42
-12 -7 -5 -17 -6 -22 -3 -5 4 -12 2 -16 -4 -4 -6 -10 -8 -15 -5 -5 3 -11 1
-15 -4 -3 -6 -13 -7 -22 -4 -10 4 -14 2 -10 -4 6 -9 -23 -20 -68 -27 -5 -1 -9
-7 -8 -13 1 -6 -6 -9 -17 -6 -12 3 -20 0 -20 -6 0 -7 -4 -9 -10 -6 -5 3 -10 1
-10 -5 0 -6 -5 -8 -10 -5 -6 3 -17 -1 -26 -9 -8 -9 -22 -16 -30 -16 -9 0 -12
-5 -8 -12 5 -8 2 -9 -9 -5 -10 3 -17 2 -17 -4 0 -6 -5 -7 -12 -3 -7 5 -8 3 -4
-5 5 -8 0 -14 -13 -18 -12 -3 -21 -9 -21 -14 0 -5 -3 -8 -8 -7 -18 6 -187
-164 -174 -176 3 -3 -3 -8 -12 -12 -9 -3 -13 -10 -10 -15 3 -5 0 -9 -5 -9 -6
0 -11 -6 -11 -14 0 -8 -6 -21 -13 -28 -13 -14 -41 -72 -35 -74 1 0 -5 -8 -15
-18 -9 -10 -15 -22 -12 -27 4 -5 1 -9 -5 -9 -6 0 -10 -6 -8 -12 1 -7 -3 -23
-10 -34 -6 -12 -13 -36 -14 -53 -1 -17 -5 -31 -9 -31 -4 0 -6 -13 -5 -29 1
-17 -2 -28 -6 -25 -8 5 -12 -22 -11 -73 0 -13 -3 -23 -7 -23 -4 0 -7 -17 -7
-37 0 -21 -1 -78 -2 -128 -2 -82 0 -113 15 -200 2 -16 5 -36 6 -42 1 -7 4 -13
8 -13 6 0 6 -35 0 -50 -1 -3 -2 -8 -1 -12 0 -5 -4 -8 -10 -8 -8 0 -8 -4 0 -13
8 -10 7 -14 -4 -14 -8 0 -15 4 -15 8 0 4 -13 22 -30 40 -16 18 -27 36 -24 41
3 4 0 8 -5 8 -6 0 -11 7 -11 15 0 8 -5 15 -11 15 -5 0 -7 5 -4 10 3 6 1 10 -4
10 -6 0 -11 7 -11 15 0 8 -4 15 -10 15 -5 0 -10 6 -10 13 0 7 -10 24 -23 37
-12 14 -21 28 -20 32 2 5 -2 8 -7 8 -6 0 -10 5 -10 10 0 12 -15 32 -42 58 -10
9 -18 22 -18 29 0 7 -4 13 -9 13 -5 0 -13 9 -16 20 -3 11 -13 20 -21 20 -8 0
-14 4 -14 9 0 11 -80 91 -91 91 -5 0 -9 7 -9 16 0 8 -3 13 -7 11 -5 -2 -19 7
-32 20 l-24 25 23 -7 c15 -5 20 -4 16 4 -4 6 0 11 9 11 9 0 13 5 10 11 -5 7 9
10 44 8 28 -2 53 0 57 3 3 4 12 4 20 1 8 -3 14 0 14 7 0 6 4 9 8 6 4 -2 12 -2
18 2 13 9 35 62 26 62 -4 0 -8 10 -9 23 -4 44 -11 62 -22 60 -6 -2 -11 1 -11
5 0 4 -9 8 -20 9 -11 1 -20 -2 -20 -8 0 -5 -9 -9 -20 -9 -11 0 -20 -4 -20 -10
0 -5 -5 -10 -11 -10 -14 0 -46 -36 -54 -61 -4 -11 -11 -19 -17 -19 -6 0 -6 6
2 15 11 13 10 14 -4 9 -12 -4 -16 0 -16 15 0 12 -6 21 -15 21 -8 0 -14 3 -14
8 4 21 -4 31 -31 42 -16 7 -27 16 -24 22 3 5 -7 6 -22 4 -15 -3 -31 -11 -36
-18 -6 -10 -8 -10 -8 2 -1 8 -5 5 -11 -8 -5 -13 -7 -28 -4 -33 4 -5 -2 -6 -11
-2 -12 4 -15 3 -10 -5 4 -7 2 -12 -3 -12 -6 0 -11 4 -11 9 0 5 -8 8 -17 7 -10
-2 -23 2 -30 8 -36 32 -48 41 -53 39 -3 0 -4 3 -2 9 1 5 -2 7 -7 4 -5 -4 -13
-1 -16 5 -4 5 -13 8 -21 5 -8 -3 -14 -1 -14 4 0 6 -9 10 -21 10 -11 0 -18 4
-15 8 2 4 -3 8 -12 9 -9 1 -30 4 -47 8 -16 4 -44 8 -62 10 -17 1 -36 5 -41 9
-6 3 -14 1 -18 -5 -4 -8 -9 -7 -15 2 -5 8 -9 9 -9 3 0 -8 -13 -9 -40 -4 -22 4
-40 4 -40 0 0 -3 -14 -4 -31 -2 -25 4 -30 2 -24 -9 6 -11 5 -11 -4 -3 -8 7
-25 9 -47 4 -23 -5 -34 -4 -34 4 0 7 -4 6 -9 -3 -6 -9 -10 -10 -16 -2 -4 7
-11 8 -18 3 -7 -5 -27 -9 -46 -11 -19 -1 -40 -6 -47 -12 -8 -7 -14 -7 -19 1
-4 7 -12 7 -26 0 -10 -6 -19 -7 -19 -3 0 4 -5 2 -12 -5 -16 -16 -31 -15 -23 1
4 6 1 5 -7 -4 -7 -9 -19 -14 -27 -11 -8 3 -11 0 -7 -6 3 -6 -1 -9 -11 -7 -10
1 -22 0 -28 -4 -5 -3 -12 -6 -15 -7 -25 -5 -80 -37 -80 -46 0 -6 -3 -8 -7 -5
-3 4 -12 2 -20 -4 -7 -6 -13 -8 -13 -5 0 14 -139 -134 -145 -154 -4 -11 -11
-17 -17 -14 -7 5 -9 1 -5 -9 4 -10 1 -17 -5 -17 -6 0 -9 -3 -5 -6 3 -3 -2 -14
-11 -25 -9 -11 -17 -23 -18 -27 0 -4 -3 -14 -6 -22 -19 -48 -25 -80 -24 -118
1 -23 -2 -42 -6 -42 -5 0 -4 -9 2 -20 6 -11 7 -20 2 -20 -5 0 -9 -7 -9 -15 0
-8 4 -15 9 -15 5 0 5 -7 0 -17 -6 -9 -6 -29 -2 -45 5 -15 7 -41 5 -58 -2 -16
0 -32 4 -34 5 -3 7 -17 6 -31 -2 -14 1 -25 6 -25 6 0 9 -6 8 -12 -3 -25 1 -39
10 -34 4 3 7 -6 5 -19 -1 -14 2 -25 7 -25 11 0 7 -23 -6 -32 -6 -4 -2 -8 8 -8
9 0 17 -5 17 -11 0 -14 -30 -44 -44 -44 -6 0 -10 -11 -8 -25 4 -25 3 -25 -13
-5 -16 20 -16 19 -9 -5 6 -24 5 -24 -9 -6 -8 12 -21 17 -30 13 -12 -4 -14 -2
-10 10 4 11 2 14 -5 9 -7 -4 -12 -2 -12 6 0 9 -3 9 -10 -2 -9 -13 -10 -13 -11
0 -1 8 -1 19 0 23 1 5 -3 6 -9 2 -6 -3 -7 -12 -3 -18 3 -7 -3 -4 -14 6 -16 14
-22 15 -26 5 -4 -11 -6 -11 -6 0 -1 8 -6 10 -13 6 -8 -5 -7 0 2 11 8 10 10 16
4 12 -17 -10 -34 16 -38 59 -2 24 -8 38 -15 36 -7 -1 -10 1 -7 6 3 5 -8 24
-25 43 -22 25 -39 34 -62 34 -18 1 -38 5 -46 9 -9 6 -12 5 -7 -2 4 -7 -8 -10
-39 -7 -25 2 -45 0 -45 -3 0 -4 -27 -7 -60 -6 -34 1 -63 -3 -66 -8 -3 -4 -13
-4 -24 2 -13 7 -21 6 -30 -5 -9 -11 -16 -12 -25 -5 -6 5 -14 7 -17 4 -4 -3
-21 -7 -40 -9 -18 -2 -33 -4 -33 -5 0 -1 -11 -4 -25 -6 -14 -3 -27 -9 -28 -14
-2 -6 -8 -8 -13 -4 -5 3 -9 0 -9 -6 0 -7 -7 -9 -16 -6 -9 3 -21 3 -27 -1 -7
-4 -16 -8 -22 -9 -27 -5 -40 -10 -46 -16 -3 -5 -18 -9 -35 -10 -16 -1 -38 -8
-50 -15 -11 -7 -24 -10 -27 -6 -4 3 -7 0 -7 -7 0 -7 -3 -10 -6 -7 -4 3 -16 1
-28 -5 -11 -7 -24 -11 -28 -10 -5 1 -8 -3 -8 -8 0 -5 -3 -9 -7 -9 -26 4 -34
-1 -21 -15 9 -10 17 -11 25 -4 8 7 13 7 13 1 0 -6 24 -10 53 -11 92 -1 162 -8
181 -19 11 -6 27 -8 37 -6 11 3 31 -2 45 -12 15 -9 23 -12 20 -6 -4 6 -3 11 3
11 5 0 12 -4 16 -10 3 -5 12 -7 20 -3 8 3 15 1 15 -5 0 -6 11 -9 25 -7 14 1
28 -2 31 -7 3 -4 10 -6 15 -3 5 4 9 0 9 -7 0 -9 3 -9 10 2 5 8 10 10 10 5 0
-9 21 -15 68 -18 6 0 12 -6 12 -12 0 -8 12 -12 30 -10 17 1 30 0 30 -4 0 -3
15 -7 32 -8 18 -2 34 -7 36 -13 3 -7 9 -6 20 2 13 11 14 11 8 -1 -6 -9 -5 -12
5 -9 8 3 22 1 32 -4 10 -5 31 -12 45 -14 15 -3 33 -11 41 -17 12 -10 13 -9 6
3 -7 12 -6 13 6 3 9 -7 37 -14 62 -14 26 -1 47 -5 47 -9 0 -4 10 -6 23 -5 12
1 31 -4 42 -10 22 -13 71 -28 95 -30 8 0 14 -6 13 -13 -2 -6 4 -9 12 -6 8 4
15 2 15 -3 0 -5 7 -10 15 -11 8 -1 22 -3 30 -4 8 -1 15 -4 15 -8 0 -11 50 -31
61 -25 5 4 9 1 9 -5 0 -7 7 -9 16 -6 8 3 12 2 9 -4 -3 -5 6 -12 20 -16 15 -4
22 -11 18 -18 -3 -6 3 -3 14 7 19 16 29 52 11 41 -5 -3 -5 -10 -2 -16 4 -7 2
-8 -4 -4 -16 10 5 49 23 43 16 -7 8 31 -12 55 -10 11 -11 18 -4 23 10 6 15 -1
12 -17 0 -4 9 -13 22 -19 12 -7 26 -18 30 -25 4 -8 13 -14 19 -14 6 0 23 -13
39 -29 15 -16 30 -27 33 -23 3 3 6 -2 6 -12 0 -9 4 -15 9 -12 5 3 17 -6 27
-19 10 -14 23 -25 28 -25 5 0 16 -8 25 -18 9 -9 28 -23 43 -31 15 -8 25 -18
22 -23 -3 -4 1 -8 10 -8 8 0 29 -14 46 -31 17 -17 33 -29 36 -26 3 3 20 1 37
-4 18 -6 39 -12 47 -14 28 -6 70 -32 63 -38 -3 -4 1 -7 11 -7 9 0 19 -7 22
-15 4 -8 9 -13 13 -11 12 7 29 -21 21 -34 -5 -7 -6 -19 -3 -27 3 -7 -2 -14
-11 -14 -17 -2 -34 -5 -38 -8 -2 -1 -31 -3 -65 -3 -34 -1 -60 -5 -57 -9 3 -5
-11 -7 -31 -5 -20 1 -38 -1 -41 -6 -3 -5 -9 -6 -14 -3 -5 3 -11 1 -15 -5 -9
-15 -27 -12 -20 3 4 6 0 4 -8 -5 -11 -14 -16 -15 -27 -5 -8 8 -11 8 -7 1 8
-13 -27 -27 -60 -24 -13 1 -23 -3 -23 -8 0 -5 -6 -9 -12 -9 -7 0 -30 -8 -50
-17 -21 -9 -38 -13 -38 -9 0 4 -7 -2 -16 -13 -8 -10 -12 -12 -8 -4 5 8 -4 5
-20 -8 -16 -12 -32 -19 -37 -16 -5 3 -9 1 -9 -5 0 -5 -12 -16 -27 -23 -47 -24
-76 -42 -99 -63 -40 -35 -54 -46 -54 -42 0 2 -31 -26 -69 -62 -38 -36 -67 -69
-65 -73 2 -4 -5 -9 -16 -13 -11 -4 -18 -11 -15 -16 4 -5 -1 -12 -9 -15 -9 -3
-14 -10 -11 -14 3 -5 -2 -13 -11 -18 -9 -5 -16 -12 -16 -15 0 -21 -12 -46 -19
-41 -5 3 -9 -2 -9 -11 0 -17 -41 -98 -52 -103 -4 -2 -5 -9 -2 -16 3 -8 -2 -21
-11 -30 -9 -9 -14 -16 -11 -16 3 0 -2 -16 -10 -35 -8 -19 -11 -35 -7 -35 4 0
2 -5 -5 -12 -7 -7 -12 -24 -12 -39 0 -15 -5 -31 -11 -35 -8 -4 -7 -9 2 -15 8
-5 9 -9 3 -9 -7 0 -11 -27 -11 -74 0 -41 -3 -78 -6 -83 -3 -5 -2 -15 3 -22 4
-8 6 -27 3 -42 -3 -18 0 -29 8 -29 8 0 8 -4 -2 -16 -10 -13 -10 -17 2 -25 8
-5 10 -9 4 -9 -5 0 -4 -5 2 -11 6 -6 9 -18 6 -25 -3 -8 0 -14 6 -14 6 0 10 -3
9 -7 -5 -16 27 -103 37 -103 5 0 3 -5 -5 -10 -10 -6 -11 -10 -2 -10 6 0 12 -7
12 -15 0 -8 5 -15 10 -15 6 0 9 -3 9 -7 -1 -5 0 -11 1 -15 1 -5 3 -11 5 -15 1
-5 10 -26 20 -48 10 -22 19 -43 19 -47 1 -3 5 -10 10 -15 5 -5 6 -2 1 7 -5 10
-5 12 3 5 5 -5 12 -19 14 -30 2 -11 10 -19 17 -17 7 1 10 -2 7 -7 -4 -5 4 -18
17 -28 13 -10 22 -24 19 -31 -2 -6 4 -12 13 -12 9 0 13 -4 10 -10 -3 -6 -2
-10 2 -10 5 0 19 -20 31 -45 12 -25 26 -45 32 -45 5 0 7 -7 4 -15 -4 -8 -1
-15 6 -15 6 0 8 -5 5 -10 -3 -6 1 -13 10 -16 9 -4 14 -13 11 -20 -3 -8 -1 -14
5 -14 6 0 8 -4 5 -9 -3 -5 1 -12 10 -15 9 -4 14 -9 11 -12 -3 -4 1 -13 9 -21
8 -8 11 -19 8 -25 -4 -6 -3 -8 3 -5 5 3 21 -5 36 -19 15 -14 27 -21 27 -17 0
4 4 3 8 -4 4 -6 29 -13 55 -14 27 -2 50 -6 52 -9 3 -6 433 -4 478 2 9 1 17 6
17 11 0 5 7 7 15 4 8 -4 17 -2 20 4 4 5 10 7 15 4 5 -3 11 -1 15 5 4 6 11 8
16 5 5 -4 9 -1 9 4 0 6 3 10 8 9 13 -4 87 24 94 36 5 8 8 7 8 -2 0 -9 5 -10
20 -2 11 5 29 15 41 20 11 6 30 8 41 4 14 -4 18 -2 14 5 -4 6 -2 9 7 5 22 -8
16 -32 -7 -27 -18 3 -17 2 2 -7 13 -5 27 -8 32 -5 4 3 11 -2 14 -11 5 -12 2
-15 -10 -10 -14 5 -15 4 -5 -8 9 -11 9 -15 0 -18 -24 -8 -5 -97 26 -120 5 -4
6 -8 1 -8 -5 0 5 -13 24 -30 31 -27 34 -28 46 -12 7 9 14 14 14 9 0 -4 13 -1
29 7 16 9 31 12 35 9 3 -4 6 -1 6 5 0 7 6 12 13 12 8 0 20 11 27 25 7 13 17
22 22 19 4 -3 8 2 8 11 0 13 2 14 14 3 8 -7 12 -16 9 -21 -2 -4 -1 -7 4 -6 19
3 46 -1 40 -7 -3 -3 3 -22 14 -41 11 -19 15 -32 9 -28 -6 4 -6 -4 2 -19 6 -14
15 -26 20 -26 4 0 8 -9 8 -20 0 -11 5 -20 12 -20 6 0 9 -3 6 -6 -3 -3 4 -16
16 -29 11 -13 37 -42 56 -64 19 -22 40 -40 45 -41 6 0 18 -8 27 -18 22 -23 38
-34 71 -51 15 -8 27 -18 27 -23 0 -5 5 -6 10 -3 6 3 10 1 10 -5 0 -6 4 -9 9
-5 5 3 16 -1 24 -9 8 -8 17 -12 21 -9 3 4 6 1 6 -5 0 -7 8 -12 18 -12 10 0 22
-3 25 -7 11 -11 107 -42 107 -35 0 4 5 0 10 -8 7 -10 10 -11 10 -2 0 10 4 10
23 0 12 -7 25 -17 28 -21 3 -5 8 -7 10 -6 6 5 69 -25 69 -33 0 -4 9 -5 20 -3
11 2 20 -1 20 -6 0 -6 5 -7 10 -4 6 3 10 1 10 -4 0 -6 3 -10 8 -10 22 4 53 -2
48 -9 -2 -4 8 -7 22 -6 15 1 32 -1 37 -5 6 -3 26 -6 46 -7 20 -1 42 -5 49 -9
9 -6 11 -4 5 5 -5 9 -4 11 3 6 22 -13 52 -15 52 -3 0 8 3 8 8 2 10 -14 42 -15
42 -2 0 8 4 7 12 -1 7 -7 17 -8 29 -2 12 7 20 6 24 0 4 -7 11 -7 18 -2 7 5 20
8 30 7 9 -2 17 0 17 5 0 4 8 6 19 3 10 -3 22 0 25 6 4 5 13 8 21 4 9 -3 15 1
15 8 0 11 3 11 10 -1 6 -10 10 -11 10 -2 0 6 4 12 9 12 5 0 22 5 38 12 15 6
34 10 42 9 8 -1 10 2 5 10 -5 9 -1 11 14 7 12 -4 22 -2 22 3 0 5 9 9 20 9 10
0 24 8 29 17 8 14 10 15 11 3 0 -13 1 -13 10 0 5 8 10 11 10 6 0 -5 7 -3 15 4
8 6 19 9 25 5 6 -4 9 -3 8 2 -2 4 0 9 4 11 16 6 98 91 98 102 0 6 5 8 10 5 6
-3 10 1 10 10 0 9 5 13 10 10 6 -3 10 0 10 8 0 8 7 18 16 21 8 3 13 10 9 15
-3 6 3 14 12 20 10 6 14 11 8 11 -5 0 -4 4 4 9 8 5 15 32 17 65 5 72 7 79 19
88 6 5 4 8 -5 8 -13 0 -13 1 0 10 11 7 11 10 2 10 -10 0 -10 5 -2 20 7 13 7
20 1 20 -7 0 -7 9 -1 26 7 18 7 23 -1 18 -8 -5 -8 -1 0 14 8 15 8 22 -2 25 -8
4 -9 8 -2 14 6 4 10 15 10 23 -1 8 5 22 13 32 9 11 10 18 2 23 -5 3 -7 12 -3
18 13 20 13 47 2 47 -8 0 -8 4 0 13 8 10 7 17 -1 25 -9 9 -9 12 1 12 10 0 10
4 3 13 -7 8 -6 18 3 31 8 10 11 24 8 32 -3 8 1 22 8 31 10 11 10 14 2 9 -9 -5
-11 -2 -7 8 3 9 9 16 13 16 4 0 7 23 6 50 -1 28 3 50 7 50 5 0 6 5 3 10 -4 6
-8 22 -11 36 -3 18 -1 23 7 18 8 -5 9 -3 4 6 -12 19 -12 150 0 150 5 0 4 4 -3
9 -7 4 -12 12 -11 17 1 5 1 11 -1 14 -1 5 -8 38 -14 67 -1 7 -5 15 -8 19 -4 3
-4 12 -1 20 3 8 0 14 -6 14 -7 0 -11 6 -10 13 3 13 -9 42 -52 130 -15 31 -22
55 -16 51 7 -3 3 2 -7 10 -11 9 -16 16 -12 16 4 0 0 7 -8 16 -9 8 -14 20 -11
25 4 5 1 9 -4 9 -6 0 -11 7 -11 15 0 8 -4 15 -10 15 -5 0 -10 7 -10 15 0 8 -5
15 -11 15 -5 0 -7 5 -4 10 3 6 2 10 -4 10 -5 0 -12 8 -16 19 -3 10 -14 29 -25
42 -11 13 -23 29 -27 34 -5 6 -17 22 -28 35 -11 13 -14 20 -6 15 10 -6 12 -2
6 16 -7 24 -7 24 10 4 9 -11 13 -14 9 -6 -5 11 -3 13 10 8 10 -4 22 -7 27 -7
6 0 7 -5 3 -12 -5 -8 0 -9 14 -6 15 4 22 2 22 -8 0 -8 6 -13 13 -11 6 1 11 -4
9 -11 -1 -8 2 -11 8 -7 5 3 10 1 10 -5 0 -6 4 -9 8 -6 5 3 14 -4 22 -14 8 -10
17 -17 22 -14 4 3 8 -3 8 -12 0 -10 3 -15 6 -11 6 6 21 -4 54 -37 11 -11 20
-16 20 -10 0 5 3 5 8 -1 11 -15 70 -55 82 -55 5 0 10 -4 10 -10 0 -5 9 -10 20
-10 11 0 20 -7 20 -16 0 -8 4 -13 9 -10 5 3 14 -1 21 -9 7 -8 16 -12 21 -9 5
3 9 0 9 -6 0 -6 5 -8 10 -5 6 3 10 2 10 -4 0 -6 11 -13 25 -17 14 -3 25 -10
25 -15 0 -5 3 -8 8 -7 4 1 36 -13 72 -32 36 -19 68 -33 73 -32 4 1 7 -3 7 -9
0 -5 5 -7 11 -3 6 3 14 3 18 -2 9 -14 59 -44 72 -44 7 0 18 -8 26 -17 8 -11
11 -12 7 -3 -7 12 -5 13 8 3 8 -7 18 -10 21 -6 4 3 7 1 7 -5 0 -6 7 -9 17 -5
12 5 14 3 8 -7 -6 -10 -4 -12 11 -6 10 4 15 4 11 0 -3 -4 3 -15 15 -25 25 -22
32 -24 21 -6 -4 6 6 4 21 -7 16 -10 25 -12 21 -5 -6 8 -4 10 6 3 18 -11 31
-13 101 -16 31 -1 55 -5 53 -8 -2 -3 10 -6 26 -7 21 -2 28 1 22 10 -5 9 -3 9
8 0 9 -7 34 -11 60 -8 41 3 84 11 84 15 0 2 28 9 50 12 11 2 23 7 26 11 3 5
15 10 25 12 10 2 20 4 22 5 1 2 5 3 10 4 18 4 72 32 72 37 0 7 40 22 52 20 5
-1 7 5 5 12 -1 6 4 11 11 10 6 -2 12 4 12 13 0 8 5 12 10 9 6 -3 10 -1 10 4 0
6 7 11 15 11 8 0 15 5 15 10 0 9 49 34 59 30 2 -1 7 2 10 7 3 4 17 14 30 21
19 11 22 11 16 0 -4 -7 3 -2 15 12 12 14 18 19 14 11 -6 -11 -3 -13 12 -7 45
18 53 16 48 -12 -3 -15 -9 -28 -14 -30 -5 -2 -7 -9 -4 -16 3 -7 -4 -23 -15
-35 -12 -13 -19 -27 -16 -31 3 -4 -6 -19 -20 -34 -13 -14 -22 -26 -19 -26 6 0
-10 -19 -65 -78 -25 -26 -48 -46 -52 -45 -4 2 -11 -6 -14 -17 -4 -11 -11 -20
-17 -20 -6 0 -19 -10 -29 -22 -11 -11 -19 -18 -19 -14 0 4 -6 2 -12 -4 -47
-39 -63 -50 -79 -55 -11 -4 -19 -10 -19 -15 0 -6 -36 -21 -48 -19 -2 0 -10 -8
-18 -18 -7 -10 -14 -13 -14 -8 0 6 -3 6 -8 -1 -8 -12 -75 -44 -91 -44 -6 0
-11 -4 -11 -10 0 -5 -11 -10 -25 -10 -14 0 -25 -4 -25 -8 0 -4 -11 -9 -25 -10
-14 -1 -42 -9 -62 -17 -21 -9 -53 -18 -73 -21 -19 -3 -40 -10 -46 -15 -6 -5
-14 -6 -17 -2 -4 3 -7 1 -7 -5 0 -6 -7 -9 -15 -6 -8 4 -15 2 -15 -4 0 -5 -7
-9 -16 -8 -9 0 -18 -5 -20 -12 -1 -7 0 -8 3 -2 2 5 9 10 14 10 6 0 7 -6 3 -12
-6 -10 -4 -10 7 -2 8 6 22 10 32 9 9 -2 17 0 17 5 0 4 10 6 23 6 12 -1 27 0
32 3 6 3 19 7 29 8 11 2 26 9 35 16 12 10 13 9 7 -1 -7 -11 -4 -12 11 -3 11 6
23 7 27 4 3 -3 6 -2 6 3 0 5 10 9 23 10 28 1 65 9 98 22 15 6 30 8 33 5 3 -4
6 -1 6 5 0 7 5 12 11 12 16 0 103 43 107 53 2 4 10 7 17 7 7 0 15 7 19 15 3 8
14 15 24 15 10 0 27 9 37 20 10 11 22 17 26 14 5 -3 9 -1 9 3 0 5 14 17 30 27
17 10 49 36 70 58 22 22 40 36 41 31 0 -4 4 2 10 15 5 13 13 20 19 17 6 -4 9
-3 8 2 -2 5 9 22 24 38 15 16 25 32 22 37 -3 4 0 8 5 8 6 0 23 19 37 43 15 23
31 44 36 45 4 2 6 8 2 13 -3 5 0 9 6 9 6 0 9 4 5 9 -3 5 2 16 10 25 9 8 15 18
15 21 0 3 6 18 14 34 9 16 12 31 9 35 -4 3 0 6 7 6 7 0 10 3 7 7 -4 3 -2 12 5
20 6 7 8 16 5 20 -4 3 -2 13 3 23 5 9 11 34 14 56 3 21 8 49 11 62 3 12 7 32
10 45 3 12 7 76 10 142 4 141 11 227 30 370 3 22 7 64 8 92 1 29 4 53 7 53 3
0 6 9 6 20 0 11 -4 20 -9 20 -4 0 -5 6 0 13 11 16 13 211 2 217 -4 3 -10 22
-12 43 -2 20 -7 40 -10 44 -4 3 -7 19 -7 34 0 15 -4 29 -10 31 -5 2 -11 12
-13 23 -1 11 -6 26 -10 33 -5 6 -5 12 0 12 4 0 0 5 -9 11 -10 5 -18 15 -18 22
0 7 -9 18 -20 25 -12 7 -19 16 -16 20 3 5 -6 16 -20 26 -13 11 -24 25 -24 33
0 8 -4 12 -9 9 -5 -3 -17 6 -27 19 -10 14 -23 25 -28 25 -5 0 -17 10 -27 22
-11 11 -19 17 -19 12 0 -5 -7 0 -15 10 -8 11 -15 14 -15 8 0 -7 -16 3 -35 22
-19 20 -35 33 -35 29 0 -3 -8 3 -17 13 -10 11 -30 25 -45 33 -16 8 -28 18 -28
23 0 4 -9 8 -20 8 -11 0 -20 3 -20 8 0 8 -61 38 -72 34 -5 -1 -8 3 -8 9 0 6
-7 9 -15 6 -8 -4 -17 -2 -20 4 -4 5 -11 7 -16 4 -5 -4 -9 -1 -9 4 0 6 -3 10
-7 10 -5 -1 -10 0 -13 1 -5 2 -29 7 -70 16 -26 6 -90 7 -220 4 -74 -1 -110 3
-130 15 -6 3 -10 3 -10 -2 0 -4 -17 -10 -38 -11 -20 -2 -46 -5 -57 -7 -11 -1
-28 -3 -38 -4 -10 0 -15 -5 -12 -11 3 -6 -1 -7 -9 -4 -9 4 -16 1 -16 -6 0 -9
-4 -9 -17 1 -14 12 -16 12 -8 0 6 -11 4 -13 -8 -8 -12 4 -14 2 -10 -10 5 -12
2 -15 -11 -10 -10 4 -23 -1 -33 -12 -9 -11 -22 -17 -29 -14 -8 3 -14 -1 -14
-8 0 -11 -3 -11 -10 1 -8 13 -10 13 -10 -1 0 -9 -11 -24 -25 -33 -14 -9 -25
-14 -25 -11 0 3 -10 -3 -22 -15 -12 -11 -28 -20 -35 -20 -7 0 -13 -4 -13 -8 0
-5 -10 -8 -22 -7 -13 1 -27 0 -33 -3 -16 -9 -45 -9 -39 0 3 4 0 8 -5 8 -6 0
-11 -4 -11 -8 0 -11 -31 -9 -50 3 -8 5 -18 10 -22 10 -3 0 -10 4 -15 9 -4 5
-3 6 4 2 14 -8 36 27 25 39 -4 4 0 5 8 3 8 -3 14 -11 12 -17 -1 -6 3 -11 9
-11 6 0 8 7 5 15 -3 9 1 18 9 21 8 4 12 10 9 15 -3 5 2 6 10 3 10 -4 16 -1 16
7 0 11 3 11 10 -1 8 -13 10 -13 10 2 0 22 29 50 42 42 7 -5 8 -2 3 5 -4 8 5
24 24 43 17 17 28 34 25 39 -3 5 2 12 10 15 9 3 13 10 10 15 -3 5 0 9 5 9 6 0
10 3 10 8 -1 4 0 10 1 15 6 18 8 24 15 55 4 17 13 32 19 32 6 0 4 5 -4 10 -8
5 -10 10 -5 10 6 0 10 17 9 37 0 21 4 44 9 51 6 8 5 12 -3 12 -8 0 -9 4 -3 13
6 6 9 29 9 50 -1 20 2 37 6 37 4 0 5 7 2 15 -3 8 -2 20 2 27 11 17 13 48 3 48
-9 0 -6 20 4 38 5 7 3 12 -3 12 -7 0 -7 7 1 23 15 26 15 27 -3 38 -10 7 -9 9
4 9 33 0 49 -11 37 -26 -9 -11 -8 -14 2 -14 8 0 25 -13 39 -30 14 -16 31 -30
38 -30 7 0 11 -4 8 -9 -3 -5 1 -12 10 -15 10 -4 13 -2 7 6 -4 7 6 3 21 -10 16
-12 32 -19 37 -16 5 3 9 0 9 -6 0 -6 5 -8 13 -4 9 6 9 5 0 -8 -7 -8 -9 -19 -5
-23 4 -5 1 -5 -5 -1 -7 4 -13 2 -13 -4 0 -12 43 -31 50 -21 3 3 14 8 25 9 11
2 27 10 36 18 8 8 19 14 24 14 4 0 14 8 22 18 8 9 11 11 7 3 -4 -8 8 -3 28 12
19 15 38 24 41 20 4 -3 7 -1 7 6 0 7 5 9 10 6 6 -3 10 -2 10 4 0 5 9 12 20 16
23 7 128 69 150 87 8 7 18 12 23 10 4 -1 10 5 13 13 3 8 10 12 15 9 5 -3 9 0
9 5 0 6 6 11 13 11 12 0 26 11 114 89 18 16 34 26 37 24 2 -3 10 5 16 17 8 14
17 19 28 15 9 -3 14 -3 10 0 -3 4 24 37 60 73 36 37 67 65 68 62 1 -3 13 9 25
25 13 17 27 32 31 33 5 2 6 8 2 13 -3 5 -1 9 4 9 5 0 21 11 36 25 15 14 24 25
21 25 -4 0 8 15 27 34 18 19 44 49 58 66 14 18 36 43 50 56 14 13 21 24 17 24
-4 0 1 9 11 19 39 44 68 90 64 104 -1 4 3 7 10 7 6 0 9 3 5 6 -3 4 1 13 9 21
8 9 13 22 10 29 -3 8 -2 14 3 14 4 0 8 7 8 15 0 10 -4 12 -12 5 -7 -5 -15 -7
-18 -3 -4 3 -7 -2 -7 -13 0 -11 -11 -28 -25 -38 -13 -10 -22 -23 -19 -28 3 -4
2 -7 -3 -6 -11 4 -129 -114 -125 -125 1 -5 -2 -6 -8 -2 -5 3 -10 1 -10 -5 0
-6 -5 -8 -10 -5 -6 3 -13 -1 -16 -9 -3 -9 -12 -16 -20 -16 -8 0 -14 -4 -14
-10 0 -5 -5 -10 -11 -10 -7 0 -18 -8 -26 -17 -9 -11 -11 -12 -7 -3 6 11 2 10
-13 -3 -11 -9 -23 -14 -26 -10 -4 3 -7 -2 -7 -12 0 -10 -3 -15 -7 -12 -3 4
-16 -1 -27 -10 -20 -17 -20 -17 -6 1 14 18 13 18 -10 12 -19 -6 -21 -5 -10 3
8 6 15 16 15 23 0 7 10 14 22 16 12 2 24 10 27 18 4 10 2 12 -6 8 -7 -4 -8 -3
-4 4 4 7 12 12 17 12 5 0 36 28 69 63 84 89 90 96 90 107 0 6 4 10 9 10 5 0
15 15 21 34 6 19 17 40 25 46 8 7 13 16 10 20 -2 4 4 16 14 26 9 11 16 25 13
32 -2 6 1 12 7 12 6 0 7 7 4 17 -4 11 -3 14 5 9 8 -5 12 0 12 13 0 12 4 21 10
21 5 0 7 6 4 14 -3 7 1 20 9 27 7 8 14 17 15 22 1 4 2 8 3 10 0 1 3 20 5 42 3
21 9 44 14 50 6 7 7 14 4 17 -3 3 2 22 10 42 8 20 11 34 5 30 -7 -4 -7 0 0 14
13 24 11 142 -2 142 -5 0 -6 4 -3 9 3 5 -1 15 -10 22 -16 13 -54 20 -54 10z
m-4799 -2444 c-10 -9 -11 -8 -5 6 3 10 9 15 12 12 3 -3 0 -11 -7 -18z m11 -69
c-8 -8 -9 -4 -5 13 4 13 8 18 11 10 2 -7 -1 -18 -6 -23z m1192 -2499 c-2 -4 2
-10 8 -12 8 -4 9 -6 2 -6 -6 -1 -17 5 -23 12 -8 10 -7 14 4 14 8 0 12 -4 9 -8z"/>
<path d="M4614 7855 c-4 -8 -10 -13 -14 -10 -4 3 -14 -3 -21 -12 -12 -14 -12
-16 1 -8 9 5 8 0 -4 -13 -12 -14 -15 -22 -6 -22 7 0 10 -7 6 -15 -3 -9 6 -23
24 -37 35 -25 60 -31 60 -15 0 8 3 7 9 -2 6 -9 11 -10 15 -2 4 6 11 9 15 7 4
-3 12 8 18 25 8 19 8 29 1 29 -7 0 -7 5 1 13 8 10 6 18 -7 33 -10 11 -17 24
-15 30 6 18 -77 17 -83 -1z"/>
<path d="M4332 7643 c-7 -10 -10 -12 -7 -6 4 8 1 11 -9 7 -9 -3 -13 -10 -10
-15 3 -5 0 -9 -6 -9 -6 0 -8 -4 -5 -10 3 -5 2 -10 -3 -10 -10 0 -10 -45 0 -55
14 -14 -5 -35 -38 -41 -19 -3 -34 -10 -34 -16 0 -5 -3 -7 -7 -5 -5 3 -17 -5
-28 -16 -11 -11 -14 -16 -6 -12 10 6 12 4 5 -6 -14 -23 -13 -72 2 -94 8 -10
14 -16 14 -11 0 4 9 -2 21 -15 11 -13 18 -18 14 -11 -3 6 -1 12 4 12 6 0 11
-5 11 -11 0 -8 4 -8 13 -2 6 6 20 9 29 8 9 -2 19 4 22 12 3 8 10 11 16 8 5 -3
10 -1 10 4 0 16 37 50 46 43 5 -4 2 1 -5 11 -11 14 -11 17 0 17 11 0 11 2 -1
10 -11 7 -11 10 -2 10 7 0 10 5 7 10 -3 6 3 10 15 10 12 0 19 4 16 9 -7 10 47
1 54 -9 3 -5 19 -9 35 -11 17 -2 36 -7 43 -12 8 -6 12 -5 12 3 0 10 3 10 15 0
10 -9 15 -9 15 -1 0 6 7 11 15 11 23 0 66 43 66 66 -1 39 -5 54 -13 54 -4 0
-7 3 -7 8 3 20 -3 32 -17 32 -9 0 -12 5 -8 13 4 6 4 9 -1 5 -4 -4 -17 -3 -28
3 -14 8 -18 8 -12 -1 5 -8 -2 -10 -24 -7 -17 3 -31 2 -31 -3 0 -5 -11 -7 -25
-5 -14 1 -25 -2 -25 -7 0 -5 -4 -7 -8 -4 -5 3 -25 6 -45 8 -21 1 -37 6 -37 11
0 4 -4 5 -10 2 -5 -3 -10 1 -10 10 0 9 -4 14 -9 11 -5 -4 -11 -2 -13 4 -2 6
-9 2 -16 -7z"/>
<path d="M3892 7544 c-7 -8 -9 -14 -5 -14 4 0 -1 -7 -11 -15 -11 -8 -16 -15
-12 -15 5 0 3 -6 -3 -14 -6 -7 -12 -25 -13 -39 -2 -21 -5 -24 -17 -14 -12 9
-13 9 -7 -1 6 -9 1 -11 -18 -8 -14 3 -26 0 -26 -5 0 -6 -4 -7 -10 -4 -9 5 -15
-15 -11 -37 0 -5 -3 -8 -8 -8 -16 0 -1 -52 19 -70 11 -9 16 -21 12 -25 -4 -5
-2 -5 5 -1 6 3 14 2 17 -3 9 -14 57 -8 84 9 13 9 22 25 22 41 0 27 22 54 33
42 4 -3 7 -2 7 3 0 5 21 9 47 8 26 0 53 4 59 10 20 20 37 106 22 106 -5 0 -7
4 -4 9 3 4 -3 19 -14 31 -11 13 -20 17 -20 10 0 -10 -3 -10 -15 0 -8 7 -15 10
-15 7 0 -3 -15 -1 -34 3 -19 4 -40 4 -47 -1 -8 -4 -16 -4 -19 0 -3 5 -11 3
-18 -5z"/>
<path d="M4650 7222 c-8 -3 -23 -14 -32 -25 -10 -11 -18 -17 -18 -14 0 4 -16
-10 -35 -30 -25 -27 -31 -39 -22 -45 9 -6 8 -8 -3 -8 -9 0 -11 -3 -5 -8 15
-11 17 -39 4 -48 -8 -5 -9 -3 -4 6 5 9 4 11 -3 6 -7 -4 -12 -14 -12 -23 0 -9
-3 -13 -6 -10 -11 11 -46 -14 -40 -29 3 -8 1 -14 -4 -14 -5 0 -5 -13 0 -30 5
-19 5 -28 -1 -25 -5 4 -9 -3 -9 -14 0 -11 9 -25 20 -31 31 -16 105 -19 125 -4
10 7 22 11 26 8 5 -3 9 2 9 10 0 9 5 16 10 16 6 0 10 7 10 15 0 8 4 15 8 15 5
0 7 14 6 30 -1 17 2 30 8 30 5 0 7 4 4 9 -3 5 8 11 25 15 40 8 58 27 64 71 2
19 7 41 11 48 4 6 4 9 0 5 -8 -6 -16 -1 -51 30 -8 7 -20 11 -27 10 -6 -2 -12
3 -13 10 0 6 -4 12 -9 11 -5 0 -12 4 -15 9 -3 5 -13 7 -21 4z"/>
<path d="M5000 7153 c-38 -26 -50 -45 -39 -65 6 -11 5 -19 -1 -23 -8 -5 -8
-11 0 -20 8 -10 7 -14 -2 -18 -10 -4 -10 -6 0 -6 6 -1 12 -8 12 -18 0 -9 3
-13 7 -10 3 4 15 -1 26 -10 11 -10 17 -13 14 -7 -5 8 6 11 36 10 25 -2 48 3
55 10 7 8 12 15 12 16 -1 2 3 15 9 30 12 32 4 87 -16 107 -23 22 -84 25 -113
4z"/>
<path d="M4877 7003 c-4 -6 -15 -10 -24 -9 -18 3 -75 -52 -67 -65 2 -4 0 -19
-6 -33 -5 -15 -6 -26 0 -26 5 0 7 -9 5 -20 -2 -11 1 -20 6 -20 6 0 7 -4 4 -10
-9 -15 31 -53 49 -47 9 4 16 1 16 -6 0 -9 2 -9 8 1 5 7 15 10 23 7 20 -8 58
35 61 68 1 15 6 27 11 27 4 0 3 9 -3 19 -6 13 -7 22 0 26 6 4 5 14 -3 28 -16
29 -48 58 -57 52 -5 -3 -10 0 -12 7 -3 9 -6 9 -11 1z"/>
<path d="M6632 5877 c-12 -13 -19 -27 -15 -32 5 -4 -2 -3 -13 3 -12 6 -24 8
-28 5 -3 -3 -6 0 -6 8 -1 10 -4 9 -11 -4 -6 -9 -14 -15 -20 -12 -5 4 -9 1 -9
-5 0 -7 7 -9 17 -6 10 4 14 4 10 0 -4 -4 -2 -13 4 -20 7 -8 7 -14 -1 -19 -6
-4 -9 -1 -8 6 2 7 -2 13 -9 14 -6 0 -15 3 -19 8 -4 4 -12 7 -17 7 -5 0 2 -9
17 -21 14 -11 23 -26 20 -32 -5 -8 -2 -8 7 1 7 6 24 12 37 12 16 0 21 4 16 13
-5 8 -2 8 9 -2 12 -9 17 -10 17 -2 0 7 5 9 13 5 8 -5 7 -2 -2 9 -12 15 -12 17
3 11 24 -9 46 14 45 50 0 26 -2 28 -9 11 -7 -17 -9 -17 -9 -2 -1 23 -13 21
-39 -6z m-42 -39 c0 -4 -4 -8 -9 -8 -6 0 -12 4 -15 8 -3 5 1 9 9 9 8 0 15 -4
15 -9z"/>
<path d="M6600 5880 c-9 -6 -10 -10 -3 -10 6 0 15 5 18 10 8 12 4 12 -15 0z"/>
<path d="M6466 5777 c3 -10 9 -15 12 -12 3 3 0 11 -7 18 -10 9 -11 8 -5 -6z"/>
</g>
</svg>
